<svg width="161" height="18" viewBox="0 0 161 18" fill="none" xmlns="http://www.w3.org/2000/svg">
<g clip-path="url(#clip0_1_93)">
<path fill-rule="evenodd" clip-rule="evenodd" d="M38.9226 1.22144H48.2554C53.6141 1.22144 55.9972 2.8811 55.9972 7.41161V10.7538C55.9972 15.1158 54.3048 17.1797 48.9477 17.1797H38.9226V1.22144ZM48.4551 12.8849C50.7956 12.8849 51.6484 11.9716 51.6484 10.4969V7.56546C51.6484 5.75686 50.6696 5.38204 48.4551 5.38204H42.9229V12.8849H48.4551Z" fill="#B4B4B4"/>
<path fill-rule="evenodd" clip-rule="evenodd" d="M84.7384 1.22144H94.0711C99.4282 1.22144 101.811 2.8811 101.813 7.41161V10.7538C101.813 15.1158 100.121 17.1797 94.7635 17.1797H84.7384V1.22144ZM94.2708 12.8849C96.6114 12.8849 97.4641 11.9716 97.4641 10.4969V7.56546C97.4641 5.75686 96.4837 5.38204 94.2708 5.38204H88.737V12.8849H94.2708Z" fill="#B4B4B4"/>
<path fill-rule="evenodd" clip-rule="evenodd" d="M62.4198 1.22144H58.1642V17.1797H62.4198V1.22144ZM63.7488 17.1797L70.3792 1.22144H76.8706L83.5223 17.1797H78.9443L77.7757 14.4349H69.335L68.2498 17.1797H63.7488ZM73.1994 5.27729L70.9652 10.5296H76.1259L73.8377 5.27729H73.1994Z" fill="#B4B4B4"/>
<path fill-rule="evenodd" clip-rule="evenodd" d="M147.003 1.22144H153.495L160.147 17.1797H155.569L154.4 14.4349H145.961L144.876 17.1797H140.375L147.003 1.22144ZM149.824 5.27729L147.589 10.5296H152.75L150.464 5.27729H149.824Z" fill="#B4B4B4"/>
<path fill-rule="evenodd" clip-rule="evenodd" d="M103.712 6.94511C103.712 2.02997 107.384 1.09375 112.561 1.09375C117.738 1.09375 121.41 2.02997 121.41 6.94511V11.456C121.41 16.3728 117.738 17.3073 112.561 17.3073C107.384 17.3073 103.712 16.3711 103.712 11.456V6.94511ZM112.651 12.8325C116.012 12.8325 117.207 12.6279 117.207 10.541V7.39031C117.207 5.32146 116.012 5.11687 112.651 5.11687C109.291 5.11687 108.193 5.32146 108.096 7.39031V10.541C108.193 12.6279 109.291 12.8325 112.651 12.8325Z" fill="#B4B4B4"/>
<path fill-rule="evenodd" clip-rule="evenodd" d="M133.062 1.21973C136.743 1.28356 139.129 2.90557 139.129 6.39348C139.129 6.76143 139.135 7.10253 139.141 7.41914C139.176 9.39112 139.194 10.4128 137.622 11.0517C139.024 11.0517 139.111 12.3545 139.111 14.1631V17.178H134.854V14.9438C134.896 13.7523 134.599 12.9437 133.322 12.9437H127.166V17.178H123.32V1.21973H133.062ZM127.166 8.92225H133.055C134.856 8.95171 134.766 7.93693 134.766 7.93693V6.44749C134.766 5.11682 133.055 5.34923 133.055 5.34923H127.166V8.92225Z" fill="#B4B4B4"/>
<path d="M26.4081 0.779447C26.4081 0.779447 19.8857 6.20035 0.146545 0.694336C0.146545 0.694336 19.5469 6.20035 24.7141 17.0438H35.1352C35.1352 17.0438 32.0009 12.5542 23.1903 7.89438C23.1903 7.89438 32.3397 6.53915 35.2204 4.6749L26.4081 0.779447Z" fill="#B4B4B4"/>
</g>
<defs>
<clipPath id="clip0_1_93">
<rect width="160" height="16.64" fill="white" transform="translate(0.146545 0.680054)"/>
</clipPath>
</defs>
</svg>
