<svg width="70" height="40" viewBox="0 0 70 40" fill="none" xmlns="http://www.w3.org/2000/svg">
<path d="M51.1179 14.9568C56.6801 12.5098 60.3121 8.835 60.51 4.75831C60.51 4.75831 59.0416 3.62705 54.3003 1.88252C50.1369 0.350554 46.9606 -6.29425e-05 46.9606 -6.29425e-05L46.9752 9.083C46.9752 10.4403 46.4304 11.8256 45.4017 13.0522C42.2547 12.2923 38.7767 11.8659 35.1288 11.8647H35.1263C31.476 11.8659 27.9943 12.2935 24.8436 13.0546C23.815 11.8281 23.2689 10.4415 23.2689 9.083L23.2823 -6.29425e-05C23.2823 -6.29425e-05 20.1084 0.350554 15.9426 1.88252C11.2013 3.62705 9.73529 4.75831 9.73529 4.75831C9.93198 8.83623 13.5652 12.5122 19.1335 14.9592C13.5701 17.4062 9.93809 21.0809 9.7414 25.1564C9.7414 25.1564 11.2086 26.2889 15.9499 28.0322C20.1145 29.5642 23.2896 29.9148 23.2896 29.9148L23.275 20.8317C23.275 19.4745 23.8198 18.0879 24.8497 16.8625C27.9967 17.6236 31.4736 18.0488 35.1214 18.0488H35.1227C38.7742 18.0488 42.2572 17.6224 45.4066 16.8589C46.4353 18.0854 46.9801 19.4745 46.9801 20.8317L46.9679 29.9148C46.9679 29.9148 50.143 29.5642 54.3077 28.0322C59.0489 26.2889 60.5162 25.1564 60.5162 25.1564C60.3182 21.0785 56.685 17.4025 51.1179 14.9568ZM35.1239 17.0006H35.1202L35.0164 16.9982C31.7228 16.9982 29.0376 16.1919 27.0682 14.9592C29.0376 13.7241 31.724 12.9166 35.0237 12.9166L35.1251 12.9154H35.13L35.2338 12.9166C38.5287 12.9166 41.2127 13.7229 43.182 14.9555C41.2127 16.1894 38.5262 16.9982 35.2277 16.9982" fill="#B4B4B4"/>
<path d="M2.45473 39.9783C0.85924 39.9783 0.831142 38.7615 0.831142 38.2924V36.0787C0.831142 35.9443 0.820147 35.766 1.10479 35.766H1.92942C2.19696 35.766 2.17986 35.9566 2.17986 36.0787V38.2924C2.17986 38.45 2.20918 38.8727 2.78947 38.8727H4.17239C4.74169 38.8727 4.77467 38.45 4.77467 38.2924V36.0787C4.77467 35.9566 4.75879 35.766 5.02511 35.766H5.85584C6.15759 35.766 6.13072 35.9566 6.13072 36.0787V38.2924C6.13072 38.7615 6.10262 39.9783 4.50102 39.9783" fill="#B4B4B4"/>
<path d="M10.0961 39.7111C9.53287 38.9524 8.72901 37.9971 7.90928 36.988V39.683C7.90928 39.8003 7.9386 39.9786 7.65884 39.9786H6.88919C6.61065 39.9786 6.64364 39.8003 6.64364 39.683V36.0791C6.64364 35.9569 6.63142 35.7663 6.88919 35.7663H8.38939C8.81331 35.7663 9.41681 36.6203 9.81263 37.1835C10.118 37.6135 10.6825 38.2597 11.0612 38.7447V36.0791C11.0612 35.9569 11.0441 35.7663 11.3238 35.7663H12.1594C12.4282 35.7663 12.4111 35.9569 12.4111 36.0791V39.9786H10.8718C10.542 39.9786 10.3966 40.0006 10.0961 39.7111Z" fill="#B4B4B4"/>
<path d="M16.4377 38.8705C17.1121 38.8705 17.0632 38.223 17.0632 37.9273C17.0632 36.9341 16.7834 36.895 16.3375 36.895H14.2179V38.8705H16.4377ZM12.9169 39.9797V35.7736H16.6344C16.8616 35.7736 18.3838 35.7467 18.3838 37.3458C18.3838 38.9816 18.5622 39.9797 16.6674 39.9797H14.6638L14.2289 39.0989V39.9797" fill="#B4B4B4"/>
<path d="M19.84 35.8004H23.2644C23.5551 35.8004 23.516 35.9898 23.516 36.3416C23.516 36.669 23.56 36.8535 23.2644 36.8535H20.5584C20.4863 36.8535 20.242 36.8144 20.242 37.0709C20.242 37.3275 20.1919 37.4289 20.4643 37.4289H22.8575C22.8575 37.4289 23.2033 38.0874 23.2424 38.1985C23.2986 38.2987 23.2925 38.394 23.0811 38.394H20.6036L20.2188 37.6463V38.7507C20.2188 39.0073 20.4484 38.9572 20.5144 38.9572H23.3254C23.6052 38.9572 23.582 39.1514 23.582 39.4691C23.582 39.8111 23.6052 39.9993 23.3254 39.9993H19.7667C19.4711 39.9993 18.892 39.9101 18.892 38.9853V36.6641C18.892 36.4247 19.0203 35.8004 19.84 35.8004Z" fill="#B4B4B4"/>
<path d="M27.4239 36.8831H25.7563C25.479 36.8831 25.4887 36.9784 25.4887 37.0627V37.8153H27.2064C28.0383 37.8153 28.0383 37.6076 28.0383 37.3901C28.0383 36.9552 28.0054 36.8831 27.4239 36.8831ZM24.4405 35.7726H28.1886C28.6907 35.7726 29.42 35.7678 29.42 37.1226C29.42 38.0095 29.2319 38.0535 28.83 38.3271C29.5056 38.4444 29.4164 39.3081 29.4164 39.7553C29.4164 39.9837 29.3333 39.9788 29.2649 39.9788H28.1666C27.9369 39.9788 27.9931 39.616 27.9931 39.4266C27.9931 38.9074 27.7036 38.9306 27.5912 38.9306H25.9737C25.8186 38.6619 25.5168 38.0596 25.5168 38.0596V39.8054C25.5168 39.9568 25.3653 39.9788 25.3104 39.9788H24.2072C24.2671 39.9788 24.0936 39.9898 24.0936 39.8383V36.1355C24.0936 35.8728 24.2781 35.7726 24.4405 35.7726Z" fill="#B4B4B4"/>
<path d="M35.4277 36.9654L34.7363 38.2261L34.7973 38.2872H36.0862L36.1534 38.2261C36.1082 38.1309 35.5511 37.0717 35.4949 36.9593L35.4277 36.9654ZM35.8736 35.8011C36.1473 35.8011 36.4136 35.9233 36.7044 36.4865C36.9011 36.8872 38.262 39.3464 38.5454 39.8607V40H37.1283L36.7202 39.2633H34.9977C34.9977 39.2633 34.7082 38.6 34.6251 38.4167C34.5188 38.589 33.9495 39.6714 33.7528 40H32.332V39.9108C32.6216 39.3647 34.6019 35.8011 34.6019 35.8011" fill="#B4B4B4"/>
<path d="M42.2621 36.8831H40.5945C40.316 36.8831 40.327 36.9784 40.327 37.0627V37.8153H42.0446C42.8766 37.8153 42.8766 37.6076 42.8766 37.3901C42.8766 36.9552 42.8436 36.8831 42.2621 36.8831ZM39.2788 35.7726H43.0268C43.5289 35.7726 44.2595 35.7678 44.2595 37.1226C44.2595 38.0095 44.0714 38.0535 43.6682 38.3271C44.3426 38.4444 44.2534 39.3081 44.2534 39.7553C44.2534 39.9837 44.1703 39.9788 44.1031 39.9788H43.0048C42.7752 39.9788 42.8314 39.616 42.8314 39.4266C42.8314 38.9074 42.5418 38.9306 42.4294 38.9306H40.812C40.6556 38.6619 40.3538 38.0596 40.3538 38.0596V39.8054C40.3538 39.9568 40.2048 39.9788 40.1486 39.9788H39.0442C39.1053 39.9788 38.933 39.9898 38.933 39.8383V36.1355C38.933 35.8728 39.1175 35.7726 39.2788 35.7726Z" fill="#B4B4B4"/>
<path d="M47.534 39.9783C47.2542 39.4542 46.4785 38.009 45.9544 37.0622V39.6826C45.9544 39.7999 45.9703 39.9783 45.7052 39.9783H44.9453C44.6607 39.9783 44.6826 39.7999 44.6826 39.6826V36.0787C44.6826 35.9566 44.6668 35.7721 44.9453 35.7721H46.2561C46.4516 35.7721 46.7289 35.7269 47.0429 36.3524C47.2775 36.8533 47.7747 37.8929 48.1143 38.4439C48.4649 37.8929 48.9731 36.8533 49.2077 36.3524C49.5143 35.7269 49.7868 35.7721 50.0042 35.7721H51.3089C51.5777 35.7721 51.5496 35.9566 51.5496 36.0787V39.6826C51.5496 39.7999 51.5875 39.9783 51.3089 39.9783H50.5454C50.2669 39.9783 50.2889 39.7999 50.2889 39.6826V37.0622C49.7599 38.009 48.989 39.4542 48.6983 39.9783" fill="#B4B4B4"/>
<path d="M55.732 38.907C56.3636 38.907 56.3404 38.2558 56.3404 37.8197C56.3404 37.4288 56.4296 36.8155 55.6099 36.8155H54.2196C53.406 36.8155 53.5013 37.4288 53.5013 37.8197C53.5013 38.2558 53.4622 38.907 54.0926 38.907H55.732ZM53.2337 39.9894C51.9901 39.9894 52.0451 38.6553 52.0451 37.7928C52.0451 37 51.9559 35.7624 53.5123 35.7502H56.2745C57.8358 35.7502 57.7344 37.0049 57.7344 37.7928C57.7344 38.6553 57.7967 39.9894 56.5347 39.9894" fill="#B4B4B4"/>
<path d="M59.8139 39.9783C58.2172 39.9783 58.1903 38.7615 58.1903 38.2924V36.0787C58.1903 35.9443 58.1793 35.766 58.464 35.766H59.2898C59.5562 35.766 59.5403 35.9566 59.5403 36.0787V38.2924C59.5403 38.45 59.5684 38.8727 60.1487 38.8727H61.5316C62.1009 38.8727 62.1339 38.45 62.1339 38.2924V36.0787C62.1339 35.9566 62.1168 35.766 62.3843 35.766H63.215C63.5168 35.766 63.4899 35.9566 63.4899 36.0787V38.2924C63.4899 38.7615 63.4618 39.9783 61.8602 39.9783" fill="#B4B4B4"/>
<path d="M67.3586 36.8831H65.6911C65.4125 36.8831 65.4235 36.9784 65.4235 37.0627V37.8153H67.1412C67.9731 37.8153 67.9731 37.6076 67.9731 37.3901C67.9731 36.9552 67.9401 36.8831 67.3586 36.8831ZM64.3741 35.7726H68.1234C68.6255 35.7726 69.3573 35.7678 69.3573 37.1226C69.3573 38.0095 69.1667 38.0535 68.7648 38.3271C69.4403 38.4444 69.3512 39.3081 69.3512 39.7553C69.3512 39.9837 69.2681 39.9788 69.1997 39.9788H68.1014C67.873 39.9788 67.9279 39.616 67.9279 39.4266C67.9279 38.9074 67.6384 38.9306 67.5272 38.9306H65.9085C65.7534 38.6619 65.4516 38.0596 65.4516 38.0596V39.8054C65.4516 39.9568 65.3001 39.9788 65.2452 39.9788H64.142C64.2019 39.9788 64.0296 39.9898 64.0296 39.8383V36.1355C64.0296 35.8728 64.2141 35.7726 64.3741 35.7726Z" fill="#B4B4B4"/>
</svg>
