<svg width="60" height="40" viewBox="0 0 60 40" fill="none" xmlns="http://www.w3.org/2000/svg">
<path d="M39.3322 26.2358L27.1326 5.03402L35.8968 0L51.0669 26.2358H39.3322Z" fill="#B4B4B4"/>
<path d="M6.83789 23.2653L15.6021 18.1973L20.2393 26.2358H8.53857L6.83789 23.2653Z" fill="#B4B4B4"/>
<path d="M24.0374 39.762H26.5317V29.6713H24.0374V39.762Z" fill="#B4B4B4"/>
<path d="M55.2959 39.9999C52.5068 39.9999 50.8288 38.56 50.7381 36.5305H53.3685C53.3685 37.1655 53.7653 38.0952 55.466 38.1292C56.5998 38.1292 57.1327 37.4602 57.1327 36.9614C57.0646 36.1677 56.0669 36.0997 55.0011 35.9296C53.9354 35.7596 53.0284 35.5668 52.3708 35.2267C51.5317 34.7958 50.9649 33.8661 50.9649 32.8004C50.9649 30.9977 52.5295 29.5691 55.1372 29.5691C57.6655 29.5691 59.2642 30.8956 59.4343 32.8684H56.8946C56.8719 32.3355 56.7699 31.4965 55.2732 31.4965C54.2642 31.4965 53.5952 31.7006 53.5386 32.4036C53.5386 33.4353 55.6361 33.3673 57.2687 33.7981C58.8333 34.1949 59.8311 35.17 59.8311 36.5305C59.8311 39.0362 57.8016 39.9999 55.2959 39.9999Z" fill="#B4B4B4"/>
<path d="M17.11 14.263L25.8741 9.2063L35.7041 26.2358H26.5317V28.7301H24.0374V26.2244L17.11 14.263Z" fill="#B4B4B4"/>
<path fill-rule="evenodd" clip-rule="evenodd" d="M17.3367 40C14.4342 40 12.0759 37.6304 12.0759 34.7619C12.0759 31.8594 14.4342 29.5692 17.3367 29.5692C18.4365 29.5692 19.4342 29.864 20.3072 30.4649V26.2358H22.8016V39.7619H20.3072V39.093C19.4342 39.6599 18.4365 40 17.3367 40ZM14.4682 34.7619C14.4682 36.3265 15.8061 37.6304 17.4047 37.6304C18.9694 37.6304 20.3072 36.3265 20.3072 34.7619C20.3072 33.1973 18.9694 31.8594 17.4047 31.8594C15.8061 31.8594 14.4682 33.1973 14.4682 34.7619Z" fill="#B4B4B4"/>
<path fill-rule="evenodd" clip-rule="evenodd" d="M35.7721 26.2358H38.2324V39.7619H35.7721V39.093C34.9331 39.6599 33.9013 40 32.7676 40C29.8991 40 27.5408 37.6304 27.5408 34.7619C27.5408 31.8594 29.8991 29.5692 32.7676 29.5692C33.9013 29.5692 34.8991 29.864 35.7721 30.4649V26.2358ZM29.9671 34.7619C29.9671 36.3265 31.305 37.6304 32.8356 37.6304C34.4342 37.6304 35.7721 36.3265 35.7721 34.7619C35.7721 33.1973 34.4342 31.8594 32.8356 31.8594C31.305 31.8594 29.9671 33.1973 29.9671 34.7619Z" fill="#B4B4B4"/>
<path fill-rule="evenodd" clip-rule="evenodd" d="M44.2982 39.9999C41.441 39.9999 39.0714 37.6303 39.0714 34.7618C39.0714 31.8593 41.441 29.5691 44.2982 29.5691C45.3979 29.5691 46.4297 29.8639 47.2687 30.4648V29.6598H49.763V39.7618H47.2687V39.0929C46.4297 39.6598 45.432 39.9999 44.2982 39.9999ZM41.4977 34.7618C41.4977 36.3264 42.8356 37.6303 44.4002 37.6303C45.9648 37.6303 47.2687 36.3264 47.2687 34.7618C47.2687 33.1972 45.9648 31.8593 44.4002 31.8593C42.8356 31.8593 41.4977 33.1972 41.4977 34.7618Z" fill="#B4B4B4"/>
<path fill-rule="evenodd" clip-rule="evenodd" d="M2.90363 34.7618C2.90363 36.3264 4.2415 37.6303 5.80612 37.6303C7.40476 37.6303 8.74263 36.3264 8.74263 34.7618C8.74263 33.1972 7.40476 31.8593 5.80612 31.8593C4.2415 31.8593 2.90363 33.1972 2.90363 34.7618ZM5.73809 39.9999C2.86961 39.9999 0.5 37.6303 0.5 34.7618C0.5 31.8593 2.86961 29.5691 5.73809 29.5691C6.83787 29.5691 7.86961 29.8639 8.74263 30.4648V29.6598H11.2029V39.7618H8.74263V39.0929C7.90363 39.6598 6.87188 39.9999 5.73809 39.9999Z" fill="#B4B4B4"/>
</svg>
