<svg width="91" height="32" viewBox="0 0 91 32" fill="none" xmlns="http://www.w3.org/2000/svg">
<g clip-path="url(#clip0_1_91)">
<path d="M10.2617 31.9868C7.58638 31.8805 5.39754 31.1484 3.68605 29.7888C3.35942 29.529 2.58109 28.7502 2.31997 28.4218C1.62594 27.5491 1.15409 26.6998 0.839367 25.7574C-0.129073 22.8567 0.369348 19.0503 2.265 14.8728C3.88807 11.2963 6.39255 7.7492 10.762 2.83645C11.4056 2.11355 13.3223 -0.000610352 13.3347 -0.000610352C13.3393 -0.000610352 13.2348 0.180341 13.1034 0.400693C11.9673 2.30367 10.9952 4.54519 10.4656 6.48574C9.61488 9.5995 9.7175 12.2716 10.7661 14.3437C11.4895 15.7711 12.7296 17.0076 14.124 17.6911C16.5653 18.8872 20.1394 18.9861 24.5043 17.9806C24.8048 17.9109 39.6961 13.9579 57.5962 9.1959C75.4963 4.43341 90.1443 0.539956 90.1466 0.543162C90.1516 0.547292 48.5595 18.3448 26.9685 27.5779C23.5491 29.0398 22.6348 29.409 21.0273 29.9734C16.918 31.4164 13.2371 32.105 10.2617 31.9868Z" fill="#B4B4B4"/>
</g>
<defs>
<clipPath id="clip0_1_91">
<rect width="89.7893" height="32" fill="white" transform="translate(0.3573)"/>
</clipPath>
</defs>
</svg>
